<svg xmlns="http://www.w3.org/2000/svg" width="32" height="32" viewBox="0 0 32 32" fill="none">
  <path d="M16 28C16 28 3 19 3 11C3 8.87827 3.84285 6.84344 5.34315 5.34315C6.84344 3.84285 8.87827 3 11 3C12.7 3 14.3 3.6 15.6 4.7C15.7333 4.8 15.8667 4.9 16 5C16.1333 4.9 16.2667 4.8 16.4 4.7C17.7 3.6 19.3 3 21 3C23.1217 3 25.1566 3.84285 26.6569 5.34315C28.1571 6.84344 29 8.87827 29 11C29 19 16 28 16 28Z" fill="#E11D48"/>
  <path d="M16 26C16 26 5 18 5 11C5 9.4087 5.63214 7.88258 6.75736 6.75736C7.88258 5.63214 9.4087 5 11 5C12.3 5 13.5 5.5 14.5 6.3C15.1 6.8 15.6 7.4 16 8C16.4 7.4 16.9 6.8 17.5 6.3C18.5 5.5 19.7 5 21 5C22.5913 5 24.1174 5.63214 25.2426 6.75736C26.3679 7.88258 27 9.4087 27 11C27 18 16 26 16 26Z" fill="#F43F5E"/>
  <path d="M16 24C16 24 7 17 7 11C7 9.93913 7.42143 8.92172 8.17157 8.17157C8.92172 7.42143 9.93913 7 11 7C12 7 12.9 7.4 13.6 8C14.4 8.7 14.9 9.6 15.2 10.5C15.3 10.8 15.7 10.8 15.8 10.5C16.1 9.6 16.6 8.7 17.4 8C18.1 7.4 19 7 20 7C21.0609 7 22.0783 7.42143 22.8284 8.17157C23.5786 8.92172 24 9.93913 24 11C24 17 16 24 16 24Z" fill="#FB7185"/>
  <path d="M16 22C16 22 9 16 9 11C9 10.4696 9.21071 9.96086 9.58579 9.58579C9.96086 9.21071 10.4696 9 11 9C11.7 9 12.4 9.3 12.9 9.8C13.4 10.3 13.7 11 13.9 11.7C14 12.1 14.5 12.1 14.6 11.7C14.8 11 15.1 10.3 15.6 9.8C16.1 9.3 16.8 9 17.5 9C18.0304 9 18.5391 9.21071 18.9142 9.58579C19.2893 9.96086 19.5 10.4696 19.5 11C19.5 16 16 22 16 22Z" fill="#FDA4AF"/>
</svg> 